<?xml version="1.0" encoding="UTF-8"?><svg id="Layer_1" xmlns="http://www.w3.org/2000/svg" viewBox="0 0 770.1 167.51"><defs><style>.cls-1{fill:#fff;}</style></defs><path class="cls-1" d="M46.02,10.41V43.59c0,5.86-1.95,10.45-5.84,13.76-3.89,3.32-8.96,4.97-15.22,4.97s-11.41-1.66-15.33-4.97c-3.91-3.32-5.87-7.9-5.87-13.76V10.41H15.68V43.59c0,3.16,.82,5.55,2.46,7.17,1.64,1.62,3.91,2.43,6.82,2.43s5.13-.8,6.73-2.41,2.41-4,2.41-7.19V10.41h11.92Z"/><path class="cls-1" d="M95.06,43.59h.21l6.19-33.19h12.02l-11.74,51.19h-11.18l-8.61-31.61h-.21l-8.54,31.61h-11.18L50.24,10.41h12.06l6.19,33.22,.21,.04,8.68-33.26h8.96l8.72,33.19Z"/><path class="cls-1" d="M163.02,46.23h.21l11.57-35.82h15.71V61.59h-11.88V28.62l-.21-.04-11.29,33.01h-7.98l-11.07-32.52-.21,.04V61.59h-11.88V10.41h15.57l11.46,35.82Z"/><path class="cls-1" d="M226.09,51.64h-15.22l-2.95,9.95h-12.52l16.7-51.19h6.36v.04l.04-.04h6.36l16.73,51.19h-12.52l-2.99-9.95Zm-12.48-9.14h9.74l-4.78-15.89h-.21l-4.75,15.89Z"/><path class="cls-1" d="M245.25,61.59V10.41h18.74c6.02,0,11.06,1.96,15.12,5.89,4.05,3.93,6.08,8.96,6.08,15.1v9.21c0,6.16-2.03,11.2-6.08,15.12-4.06,3.91-9.09,5.87-15.12,5.87h-18.74Zm11.88-42.05V52.45h6.86c2.69,0,4.92-1.1,6.66-3.3,1.75-2.2,2.62-5.05,2.62-8.54v-9.28c0-3.45-.87-6.27-2.62-8.47-1.75-2.2-3.97-3.3-6.66-3.3h-6.86Z"/><path class="cls-1" d="M304.88,61.59h-11.85V10.41h11.85V61.59Z"/><path class="cls-1" d="M340.17,48.02c0-1.83-.6-3.23-1.79-4.2-1.2-.97-3.36-2.01-6.5-3.11-6.35-2.06-11.07-4.26-14.15-6.59-3.08-2.33-4.62-5.69-4.62-10.07s1.79-7.76,5.38-10.41c3.59-2.65,8.14-3.97,13.68-3.97,5.84,0,10.53,1.37,14.1,4.1,3.56,2.73,5.29,6.58,5.17,11.55l-.07,.21h-11.53c0-2.41-.66-4.17-1.97-5.26-1.31-1.09-3.29-1.63-5.94-1.63-2.16,0-3.86,.53-5.1,1.58-1.24,1.05-1.86,2.36-1.86,3.9s.64,2.7,1.92,3.6c1.28,.9,3.66,2.03,7.15,3.39,5.93,1.76,10.42,3.9,13.46,6.43s4.57,6,4.57,10.41-1.76,8.02-5.27,10.56c-3.52,2.54-8.18,3.81-13.99,3.81s-10.69-1.37-14.71-4.1c-4.02-2.73-5.97-7.03-5.85-12.88l.07-.21h11.57c0,2.98,.73,5.09,2.2,6.35,1.46,1.25,3.71,1.88,6.73,1.88,2.48,0,4.34-.49,5.55-1.48,1.22-.98,1.83-2.27,1.83-3.87Z"/><path class="cls-1" d="M401.06,40.61c0,6.31-2,11.5-5.99,15.59-4,4.09-9.22,6.13-15.66,6.13s-11.75-2.04-15.79-6.13c-4.03-4.09-6.05-9.29-6.05-15.59v-9.21c0-6.28,2.01-11.47,6.03-15.57,4.02-4.1,9.26-6.15,15.73-6.15s11.65,2.05,15.68,6.15c4.03,4.1,6.05,9.29,6.05,15.57v9.21Zm-11.85-9.28c0-3.66-.86-6.66-2.58-9-1.72-2.34-4.15-3.52-7.29-3.52s-5.67,1.17-7.37,3.5c-1.7,2.33-2.55,5.34-2.55,9.02v9.28c0,3.7,.86,6.73,2.58,9.07,1.72,2.34,4.19,3.52,7.4,3.52s5.53-1.17,7.24-3.52c1.71-2.34,2.57-5.37,2.57-9.07v-9.28Z"/><path class="cls-1" d="M450.98,61.59h-11.85l-18.74-32.2-.21,.07V61.59h-11.88V10.41h11.88l18.74,32.17,.21-.07V10.41h11.85V61.59Z"/><path class="cls-1" d="M30.48,134.42c0-1.83-.6-3.23-1.79-4.2s-3.36-2.01-6.5-3.11c-6.35-2.06-11.07-4.26-14.15-6.59-3.08-2.33-4.62-5.69-4.62-10.07s1.79-7.76,5.38-10.41,8.14-3.97,13.68-3.97c5.84,0,10.53,1.37,14.1,4.1,3.56,2.73,5.29,6.58,5.17,11.55l-.07,.21h-11.53c0-2.41-.66-4.17-1.97-5.26-1.31-1.09-3.29-1.63-5.94-1.63-2.16,0-3.86,.53-5.1,1.58-1.24,1.05-1.86,2.36-1.86,3.9s.64,2.7,1.92,3.6c1.28,.9,3.66,2.03,7.15,3.39,5.93,1.76,10.42,3.9,13.46,6.43,3.05,2.53,4.57,6,4.57,10.41s-1.76,8.02-5.27,10.56-8.18,3.81-13.99,3.81-10.69-1.37-14.71-4.1c-4.02-2.73-5.97-7.03-5.85-12.88l.07-.21H14.17c0,2.98,.73,5.09,2.2,6.35,1.46,1.25,3.71,1.88,6.73,1.88,2.48,0,4.34-.49,5.55-1.48,1.22-.98,1.83-2.27,1.83-3.87Z"/><path class="cls-1" d="M88.14,130.73l.07,.21c.09,5.84-1.55,10.26-4.94,13.27-3.39,3.01-8.19,4.52-14.4,4.52s-11.41-1.93-15.24-5.8-5.75-8.93-5.75-15.19v-10.69c0-6.23,1.85-11.29,5.54-15.17s8.57-5.82,14.64-5.82c6.49,0,11.51,1.51,15.06,4.54s5.28,7.42,5.19,13.18l-.11,.21h-11.57c0-3.14-.67-5.39-2-6.75s-3.53-2.04-6.57-2.04c-2.67,0-4.72,1.07-6.15,3.22-1.43,2.14-2.14,5-2.14,8.56v10.76c0,3.59,.79,6.46,2.36,8.61,1.57,2.16,3.82,3.23,6.75,3.23,2.72,0,4.68-.68,5.89-2.04,1.21-1.36,1.81-3.63,1.81-6.82h11.57Z"/><path class="cls-1" d="M137.46,147.99h-11.85v-20.6h-18.95v20.6h-11.88v-51.19h11.88v21.45h18.95v-21.45h11.85v51.19Z"/><path class="cls-1" d="M175.54,126.09h-18.04v12.76h21.62v9.14h-33.5v-51.19h33.54v9.14h-21.66v11h18.04v9.14Z"/><path class="cls-1" d="M185.8,147.99v-51.19h18.74c6.02,0,11.06,1.96,15.12,5.89,4.05,3.93,6.08,8.96,6.08,15.1v9.21c0,6.16-2.03,11.2-6.08,15.12-4.06,3.91-9.09,5.87-15.12,5.87h-18.74Zm11.88-42.05v32.91h6.86c2.69,0,4.92-1.1,6.66-3.3,1.75-2.2,2.62-5.05,2.62-8.54v-9.28c0-3.45-.87-6.27-2.62-8.47-1.75-2.2-3.97-3.3-6.66-3.3h-6.86Z"/><path class="cls-1" d="M274.78,96.81v33.19c0,5.86-1.95,10.45-5.84,13.76-3.89,3.32-8.96,4.97-15.22,4.97s-11.41-1.66-15.33-4.97c-3.91-3.32-5.87-7.9-5.87-13.76v-33.19h11.92v33.19c0,3.16,.82,5.55,2.46,7.17,1.64,1.62,3.91,2.43,6.82,2.43s5.13-.8,6.73-2.41c1.6-1.61,2.41-4,2.41-7.19v-33.19h11.92Z"/><path class="cls-1" d="M294.54,138.85h21.97v9.14h-33.86v-51.19h11.88v42.05Z"/><path class="cls-1" d="M352.79,126.09h-18.03v12.76h21.62v9.14h-33.5v-51.19h33.54v9.14h-21.66v11h18.03v9.14Z"/><path class="cls-1" d="M380.99,147.99v-51.19h18.74c6.02,0,11.06,1.96,15.12,5.89s6.08,8.96,6.08,15.1v9.21c0,6.16-2.03,11.2-6.08,15.12s-9.09,5.87-15.12,5.87h-18.74Zm11.88-42.05v32.91h6.86c2.7,0,4.92-1.1,6.66-3.3s2.62-5.05,2.62-8.54v-9.28c0-3.45-.87-6.27-2.62-8.47s-3.97-3.3-6.66-3.3h-6.86Z"/><path class="cls-1" d="M470.57,127.01c0,6.3-2,11.5-5.99,15.59s-9.22,6.13-15.66,6.13-11.75-2.04-15.79-6.13-6.05-9.29-6.05-15.59v-9.21c0-6.28,2.01-11.47,6.03-15.57s9.26-6.15,15.73-6.15,11.65,2.05,15.68,6.15,6.05,9.29,6.05,15.57v9.21Zm-11.85-9.28c0-3.66-.86-6.66-2.58-9s-4.15-3.52-7.29-3.52-5.67,1.17-7.37,3.5-2.55,5.34-2.55,9.02v9.28c0,3.7,.86,6.73,2.58,9.07s4.19,3.52,7.4,3.52,5.53-1.17,7.24-3.52,2.57-5.37,2.57-9.07v-9.28Z"/><path class="cls-1" d="M518.98,129.99h.21l6.19-33.19h12.02l-11.74,51.19h-11.18l-8.61-31.61h-.21l-8.54,31.61h-11.18l-11.78-51.19h12.06l6.19,33.22,.21,.04,8.68-33.26h8.96l8.72,33.19Z"/><path class="cls-1" d="M584.65,147.99h-11.85l-18.74-32.2-.21,.07v32.13h-11.88v-51.19h11.88l18.74,32.17,.21-.07v-32.1h11.85v51.19Z"/><path class="cls-1" d="M604.69,138.85h21.97v9.14h-33.86v-51.19h11.88v42.05Z"/><path class="cls-1" d="M674.68,127.01c0,6.3-2,11.5-5.99,15.59s-9.22,6.13-15.66,6.13-11.75-2.04-15.79-6.13-6.05-9.29-6.05-15.59v-9.21c0-6.28,2.01-11.47,6.03-15.57s9.26-6.15,15.73-6.15,11.65,2.05,15.68,6.15,6.05,9.29,6.05,15.57v9.21Zm-11.85-9.28c0-3.66-.86-6.66-2.58-9s-4.15-3.52-7.29-3.52-5.67,1.17-7.37,3.5-2.55,5.34-2.55,9.02v9.28c0,3.7,.86,6.73,2.58,9.07s4.19,3.52,7.4,3.52,5.53-1.17,7.24-3.52,2.57-5.37,2.57-9.07v-9.28Z"/><path class="cls-1" d="M707.98,138.04h-15.22l-2.95,9.95h-12.52l16.7-51.19h6.36v.04l.04-.04h6.36l16.73,51.19h-12.52l-2.99-9.95Zm-12.48-9.14h9.74l-4.78-15.89h-.21l-4.75,15.89Z"/><path class="cls-1" d="M727.14,147.99v-51.19h18.74c6.02,0,11.06,1.96,15.12,5.89s6.08,8.96,6.08,15.1v9.21c0,6.16-2.03,11.2-6.08,15.12s-9.09,5.87-15.12,5.87h-18.74Zm11.88-42.05v32.91h6.86c2.7,0,4.92-1.1,6.66-3.3s2.62-5.05,2.62-8.54v-9.28c0-3.45-.87-6.27-2.62-8.47s-3.97-3.3-6.66-3.3h-6.86Z"/></svg>